<mxfile host="app.diagrams.net" modified="2022-02-23T07:55:39.710Z" agent="5.0 (Macintosh; Intel Mac OS X 10_15_7) AppleWebKit/537.36 (KHTML, like Gecko) Chrome/98.0.4758.109 Safari/537.36" etag="298rG0EsjlIv3AEJSWjT" version="16.5.6" type="github">
  <diagram id="C5RBs43oDa-KdzZeNtuy" name="Page-1">
    <mxGraphModel dx="893" dy="1129" grid="1" gridSize="10" guides="1" tooltips="1" connect="1" arrows="1" fold="1" page="1" pageScale="1" pageWidth="827" pageHeight="1169" math="0" shadow="0">
      <root>
        <mxCell id="WIyWlLk6GJQsqaUBKTNV-0" />
        <mxCell id="WIyWlLk6GJQsqaUBKTNV-1" parent="WIyWlLk6GJQsqaUBKTNV-0" />
        <mxCell id="nvJy1aFqVvoF6byBFl7i-10" style="edgeStyle=orthogonalEdgeStyle;rounded=0;orthogonalLoop=1;jettySize=auto;html=1;entryX=0.5;entryY=0;entryDx=0;entryDy=0;dashed=1;" parent="WIyWlLk6GJQsqaUBKTNV-1" source="nvJy1aFqVvoF6byBFl7i-0" target="nvJy1aFqVvoF6byBFl7i-6" edge="1">
          <mxGeometry relative="1" as="geometry" />
        </mxCell>
        <mxCell id="nvJy1aFqVvoF6byBFl7i-0" value="feature-01" style="text;html=1;align=center;verticalAlign=middle;resizable=0;points=[];autosize=1;strokeColor=none;fillColor=none;" parent="WIyWlLk6GJQsqaUBKTNV-1" vertex="1">
          <mxGeometry x="85" y="110" width="70" height="20" as="geometry" />
        </mxCell>
        <mxCell id="nvJy1aFqVvoF6byBFl7i-19" style="edgeStyle=orthogonalEdgeStyle;rounded=0;orthogonalLoop=1;jettySize=auto;html=1;entryX=0.5;entryY=0;entryDx=0;entryDy=0;dashed=1;" parent="WIyWlLk6GJQsqaUBKTNV-1" source="nvJy1aFqVvoF6byBFl7i-1" target="nvJy1aFqVvoF6byBFl7i-16" edge="1">
          <mxGeometry relative="1" as="geometry" />
        </mxCell>
        <mxCell id="nvJy1aFqVvoF6byBFl7i-1" value="feature-02" style="text;html=1;align=center;verticalAlign=middle;resizable=0;points=[];autosize=1;strokeColor=none;fillColor=none;" parent="WIyWlLk6GJQsqaUBKTNV-1" vertex="1">
          <mxGeometry x="185" y="110" width="70" height="20" as="geometry" />
        </mxCell>
        <mxCell id="nvJy1aFqVvoF6byBFl7i-2" value="release-V1&lt;br&gt;提测" style="text;html=1;align=center;verticalAlign=middle;resizable=0;points=[];autosize=1;strokeColor=none;fillColor=none;" parent="WIyWlLk6GJQsqaUBKTNV-1" vertex="1">
          <mxGeometry x="300" y="105" width="70" height="30" as="geometry" />
        </mxCell>
        <mxCell id="nvJy1aFqVvoF6byBFl7i-3" value="dev" style="text;html=1;align=center;verticalAlign=middle;resizable=0;points=[];autosize=1;strokeColor=none;fillColor=none;" parent="WIyWlLk6GJQsqaUBKTNV-1" vertex="1">
          <mxGeometry x="428.5" y="110" width="40" height="20" as="geometry" />
        </mxCell>
        <mxCell id="nvJy1aFqVvoF6byBFl7i-4" value="hotfix-01" style="text;html=1;align=center;verticalAlign=middle;resizable=0;points=[];autosize=1;strokeColor=none;fillColor=none;" parent="WIyWlLk6GJQsqaUBKTNV-1" vertex="1">
          <mxGeometry x="520" y="110" width="60" height="20" as="geometry" />
        </mxCell>
        <mxCell id="nvJy1aFqVvoF6byBFl7i-5" value="master" style="text;html=1;align=center;verticalAlign=middle;resizable=0;points=[];autosize=1;strokeColor=none;fillColor=none;" parent="WIyWlLk6GJQsqaUBKTNV-1" vertex="1">
          <mxGeometry x="625" y="110" width="50" height="20" as="geometry" />
        </mxCell>
        <mxCell id="nvJy1aFqVvoF6byBFl7i-11" style="edgeStyle=orthogonalEdgeStyle;rounded=0;orthogonalLoop=1;jettySize=auto;html=1;exitX=0.5;exitY=1;exitDx=0;exitDy=0;entryX=0.5;entryY=0;entryDx=0;entryDy=0;dashed=1;" parent="WIyWlLk6GJQsqaUBKTNV-1" source="nvJy1aFqVvoF6byBFl7i-6" target="nvJy1aFqVvoF6byBFl7i-8" edge="1">
          <mxGeometry relative="1" as="geometry" />
        </mxCell>
        <mxCell id="nvJy1aFqVvoF6byBFl7i-6" value="" style="ellipse;whiteSpace=wrap;html=1;aspect=fixed;fillColor=#f8cecc;strokeColor=#b85450;" parent="WIyWlLk6GJQsqaUBKTNV-1" vertex="1">
          <mxGeometry x="110" y="170" width="20" height="20" as="geometry" />
        </mxCell>
        <mxCell id="nvJy1aFqVvoF6byBFl7i-20" style="edgeStyle=orthogonalEdgeStyle;rounded=0;orthogonalLoop=1;jettySize=auto;html=1;exitX=0.5;exitY=1;exitDx=0;exitDy=0;entryX=0.5;entryY=0;entryDx=0;entryDy=0;dashed=1;" parent="WIyWlLk6GJQsqaUBKTNV-1" source="nvJy1aFqVvoF6byBFl7i-8" target="nvJy1aFqVvoF6byBFl7i-12" edge="1">
          <mxGeometry relative="1" as="geometry" />
        </mxCell>
        <mxCell id="nvJy1aFqVvoF6byBFl7i-32" style="edgeStyle=none;rounded=0;orthogonalLoop=1;jettySize=auto;html=1;exitX=1;exitY=0.5;exitDx=0;exitDy=0;strokeColor=#FF0000;" parent="WIyWlLk6GJQsqaUBKTNV-1" source="nvJy1aFqVvoF6byBFl7i-8" edge="1">
          <mxGeometry relative="1" as="geometry">
            <mxPoint x="320" y="320" as="targetPoint" />
          </mxGeometry>
        </mxCell>
        <mxCell id="nvJy1aFqVvoF6byBFl7i-8" value="" style="ellipse;whiteSpace=wrap;html=1;aspect=fixed;fillColor=#f8cecc;strokeColor=#b85450;" parent="WIyWlLk6GJQsqaUBKTNV-1" vertex="1">
          <mxGeometry x="110" y="230" width="20" height="20" as="geometry" />
        </mxCell>
        <mxCell id="nvJy1aFqVvoF6byBFl7i-61" style="edgeStyle=none;rounded=0;orthogonalLoop=1;jettySize=auto;html=1;exitX=0.5;exitY=1;exitDx=0;exitDy=0;entryX=0.5;entryY=0;entryDx=0;entryDy=0;strokeColor=#000000;dashed=1;" parent="WIyWlLk6GJQsqaUBKTNV-1" source="nvJy1aFqVvoF6byBFl7i-12" target="nvJy1aFqVvoF6byBFl7i-13" edge="1">
          <mxGeometry relative="1" as="geometry" />
        </mxCell>
        <mxCell id="nvJy1aFqVvoF6byBFl7i-12" value="" style="ellipse;whiteSpace=wrap;html=1;aspect=fixed;fillColor=#f8cecc;strokeColor=#b85450;" parent="WIyWlLk6GJQsqaUBKTNV-1" vertex="1">
          <mxGeometry x="110" y="390" width="20" height="20" as="geometry" />
        </mxCell>
        <mxCell id="nvJy1aFqVvoF6byBFl7i-62" style="edgeStyle=none;rounded=0;orthogonalLoop=1;jettySize=auto;html=1;exitX=0.5;exitY=1;exitDx=0;exitDy=0;entryX=0.5;entryY=0;entryDx=0;entryDy=0;strokeColor=#000000;dashed=1;" parent="WIyWlLk6GJQsqaUBKTNV-1" source="nvJy1aFqVvoF6byBFl7i-13" target="nvJy1aFqVvoF6byBFl7i-14" edge="1">
          <mxGeometry relative="1" as="geometry" />
        </mxCell>
        <mxCell id="nvJy1aFqVvoF6byBFl7i-13" value="" style="ellipse;whiteSpace=wrap;html=1;aspect=fixed;fillColor=#f8cecc;strokeColor=#b85450;" parent="WIyWlLk6GJQsqaUBKTNV-1" vertex="1">
          <mxGeometry x="110" y="440" width="20" height="20" as="geometry" />
        </mxCell>
        <mxCell id="nvJy1aFqVvoF6byBFl7i-14" value="" style="ellipse;whiteSpace=wrap;html=1;aspect=fixed;fillColor=#f8cecc;strokeColor=#b85450;" parent="WIyWlLk6GJQsqaUBKTNV-1" vertex="1">
          <mxGeometry x="110" y="490" width="20" height="20" as="geometry" />
        </mxCell>
        <mxCell id="nvJy1aFqVvoF6byBFl7i-15" style="edgeStyle=orthogonalEdgeStyle;rounded=0;orthogonalLoop=1;jettySize=auto;html=1;exitX=0.5;exitY=1;exitDx=0;exitDy=0;entryX=0.5;entryY=0;entryDx=0;entryDy=0;dashed=1;" parent="WIyWlLk6GJQsqaUBKTNV-1" source="nvJy1aFqVvoF6byBFl7i-16" target="nvJy1aFqVvoF6byBFl7i-17" edge="1">
          <mxGeometry relative="1" as="geometry" />
        </mxCell>
        <mxCell id="nvJy1aFqVvoF6byBFl7i-16" value="" style="ellipse;whiteSpace=wrap;html=1;aspect=fixed;fillColor=#f8cecc;strokeColor=#b85450;" parent="WIyWlLk6GJQsqaUBKTNV-1" vertex="1">
          <mxGeometry x="210" y="170" width="20" height="20" as="geometry" />
        </mxCell>
        <mxCell id="nvJy1aFqVvoF6byBFl7i-29" style="edgeStyle=orthogonalEdgeStyle;rounded=0;orthogonalLoop=1;jettySize=auto;html=1;exitX=0.5;exitY=1;exitDx=0;exitDy=0;entryX=0.5;entryY=0;entryDx=0;entryDy=0;dashed=1;" parent="WIyWlLk6GJQsqaUBKTNV-1" source="nvJy1aFqVvoF6byBFl7i-17" target="nvJy1aFqVvoF6byBFl7i-25" edge="1">
          <mxGeometry relative="1" as="geometry" />
        </mxCell>
        <mxCell id="nvJy1aFqVvoF6byBFl7i-17" value="" style="ellipse;whiteSpace=wrap;html=1;aspect=fixed;fillColor=#f8cecc;strokeColor=#b85450;" parent="WIyWlLk6GJQsqaUBKTNV-1" vertex="1">
          <mxGeometry x="210" y="230" width="20" height="20" as="geometry" />
        </mxCell>
        <mxCell id="nvJy1aFqVvoF6byBFl7i-43" style="edgeStyle=none;rounded=0;orthogonalLoop=1;jettySize=auto;html=1;exitX=0.5;exitY=1;exitDx=0;exitDy=0;entryX=0.5;entryY=0;entryDx=0;entryDy=0;dashed=1;strokeColor=#000000;" parent="WIyWlLk6GJQsqaUBKTNV-1" source="nvJy1aFqVvoF6byBFl7i-22" target="nvJy1aFqVvoF6byBFl7i-33" edge="1">
          <mxGeometry relative="1" as="geometry" />
        </mxCell>
        <mxCell id="nvJy1aFqVvoF6byBFl7i-22" value="" style="ellipse;whiteSpace=wrap;html=1;aspect=fixed;fillColor=#d5e8d4;strokeColor=#82b366;" parent="WIyWlLk6GJQsqaUBKTNV-1" vertex="1">
          <mxGeometry x="325" y="320" width="20" height="20" as="geometry" />
        </mxCell>
        <mxCell id="nvJy1aFqVvoF6byBFl7i-46" style="edgeStyle=none;rounded=0;orthogonalLoop=1;jettySize=auto;html=1;exitX=0.5;exitY=1;exitDx=0;exitDy=0;entryX=0.5;entryY=0;entryDx=0;entryDy=0;dashed=1;strokeColor=#000000;" parent="WIyWlLk6GJQsqaUBKTNV-1" source="nvJy1aFqVvoF6byBFl7i-23" target="nvJy1aFqVvoF6byBFl7i-36" edge="1">
          <mxGeometry relative="1" as="geometry" />
        </mxCell>
        <mxCell id="nvJy1aFqVvoF6byBFl7i-57" style="edgeStyle=none;rounded=0;orthogonalLoop=1;jettySize=auto;html=1;exitX=0;exitY=0.5;exitDx=0;exitDy=0;entryX=1;entryY=0.5;entryDx=0;entryDy=0;strokeColor=#000000;" parent="WIyWlLk6GJQsqaUBKTNV-1" source="nvJy1aFqVvoF6byBFl7i-23" target="nvJy1aFqVvoF6byBFl7i-16" edge="1">
          <mxGeometry relative="1" as="geometry" />
        </mxCell>
        <mxCell id="nvJy1aFqVvoF6byBFl7i-58" style="edgeStyle=none;rounded=0;orthogonalLoop=1;jettySize=auto;html=1;exitX=0;exitY=0.5;exitDx=0;exitDy=0;entryX=1;entryY=0.5;entryDx=0;entryDy=0;strokeColor=#000000;" parent="WIyWlLk6GJQsqaUBKTNV-1" source="nvJy1aFqVvoF6byBFl7i-23" target="nvJy1aFqVvoF6byBFl7i-6" edge="1">
          <mxGeometry relative="1" as="geometry" />
        </mxCell>
        <mxCell id="nvJy1aFqVvoF6byBFl7i-23" value="" style="ellipse;whiteSpace=wrap;html=1;aspect=fixed;fillColor=#fff2cc;strokeColor=#d6b656;" parent="WIyWlLk6GJQsqaUBKTNV-1" vertex="1">
          <mxGeometry x="438.5" y="160" width="20" height="20" as="geometry" />
        </mxCell>
        <mxCell id="nvJy1aFqVvoF6byBFl7i-63" style="edgeStyle=none;rounded=0;orthogonalLoop=1;jettySize=auto;html=1;exitX=0.5;exitY=1;exitDx=0;exitDy=0;entryX=0.5;entryY=0;entryDx=0;entryDy=0;dashed=1;strokeColor=#000000;" parent="WIyWlLk6GJQsqaUBKTNV-1" source="nvJy1aFqVvoF6byBFl7i-24" target="nvJy1aFqVvoF6byBFl7i-51" edge="1">
          <mxGeometry relative="1" as="geometry" />
        </mxCell>
        <mxCell id="nvJy1aFqVvoF6byBFl7i-24" value="" style="ellipse;whiteSpace=wrap;html=1;aspect=fixed;fillColor=#dae8fc;strokeColor=#6c8ebf;" parent="WIyWlLk6GJQsqaUBKTNV-1" vertex="1">
          <mxGeometry x="640" y="170" width="20" height="20" as="geometry" />
        </mxCell>
        <mxCell id="nvJy1aFqVvoF6byBFl7i-31" style="edgeStyle=none;rounded=0;orthogonalLoop=1;jettySize=auto;html=1;exitX=1;exitY=1;exitDx=0;exitDy=0;fillColor=#f8cecc;strokeColor=#FF0000;" parent="WIyWlLk6GJQsqaUBKTNV-1" source="nvJy1aFqVvoF6byBFl7i-25" edge="1">
          <mxGeometry relative="1" as="geometry">
            <mxPoint x="320" y="330" as="targetPoint" />
          </mxGeometry>
        </mxCell>
        <mxCell id="nvJy1aFqVvoF6byBFl7i-59" style="edgeStyle=none;rounded=0;orthogonalLoop=1;jettySize=auto;html=1;exitX=0.5;exitY=1;exitDx=0;exitDy=0;entryX=0.5;entryY=0;entryDx=0;entryDy=0;strokeColor=#000000;dashed=1;" parent="WIyWlLk6GJQsqaUBKTNV-1" source="nvJy1aFqVvoF6byBFl7i-25" target="nvJy1aFqVvoF6byBFl7i-26" edge="1">
          <mxGeometry relative="1" as="geometry" />
        </mxCell>
        <mxCell id="nvJy1aFqVvoF6byBFl7i-25" value="" style="ellipse;whiteSpace=wrap;html=1;aspect=fixed;fillColor=#f8cecc;strokeColor=#b85450;" parent="WIyWlLk6GJQsqaUBKTNV-1" vertex="1">
          <mxGeometry x="210" y="290" width="20" height="20" as="geometry" />
        </mxCell>
        <mxCell id="nvJy1aFqVvoF6byBFl7i-60" style="edgeStyle=none;rounded=0;orthogonalLoop=1;jettySize=auto;html=1;exitX=0.5;exitY=1;exitDx=0;exitDy=0;entryX=0.5;entryY=0;entryDx=0;entryDy=0;strokeColor=#000000;dashed=1;" parent="WIyWlLk6GJQsqaUBKTNV-1" source="nvJy1aFqVvoF6byBFl7i-26" target="nvJy1aFqVvoF6byBFl7i-28" edge="1">
          <mxGeometry relative="1" as="geometry" />
        </mxCell>
        <mxCell id="nvJy1aFqVvoF6byBFl7i-26" value="" style="ellipse;whiteSpace=wrap;html=1;aspect=fixed;fillColor=#f8cecc;strokeColor=#b85450;" parent="WIyWlLk6GJQsqaUBKTNV-1" vertex="1">
          <mxGeometry x="210" y="420" width="20" height="20" as="geometry" />
        </mxCell>
        <mxCell id="nvJy1aFqVvoF6byBFl7i-28" value="" style="ellipse;whiteSpace=wrap;html=1;aspect=fixed;fillColor=#f8cecc;strokeColor=#b85450;" parent="WIyWlLk6GJQsqaUBKTNV-1" vertex="1">
          <mxGeometry x="210" y="470" width="20" height="20" as="geometry" />
        </mxCell>
        <mxCell id="nvJy1aFqVvoF6byBFl7i-44" style="edgeStyle=none;rounded=0;orthogonalLoop=1;jettySize=auto;html=1;exitX=0.5;exitY=1;exitDx=0;exitDy=0;entryX=0.5;entryY=0;entryDx=0;entryDy=0;dashed=1;strokeColor=#000000;" parent="WIyWlLk6GJQsqaUBKTNV-1" source="nvJy1aFqVvoF6byBFl7i-33" target="nvJy1aFqVvoF6byBFl7i-34" edge="1">
          <mxGeometry relative="1" as="geometry" />
        </mxCell>
        <mxCell id="nvJy1aFqVvoF6byBFl7i-33" value="" style="ellipse;whiteSpace=wrap;html=1;aspect=fixed;fillColor=#d5e8d4;strokeColor=#82b366;" parent="WIyWlLk6GJQsqaUBKTNV-1" vertex="1">
          <mxGeometry x="325" y="370" width="20" height="20" as="geometry" />
        </mxCell>
        <mxCell id="nvJy1aFqVvoF6byBFl7i-45" style="edgeStyle=none;rounded=0;orthogonalLoop=1;jettySize=auto;html=1;exitX=0.5;exitY=1;exitDx=0;exitDy=0;entryX=0.5;entryY=0;entryDx=0;entryDy=0;dashed=1;strokeColor=#000000;" parent="WIyWlLk6GJQsqaUBKTNV-1" source="nvJy1aFqVvoF6byBFl7i-34" target="nvJy1aFqVvoF6byBFl7i-35" edge="1">
          <mxGeometry relative="1" as="geometry" />
        </mxCell>
        <mxCell id="nvJy1aFqVvoF6byBFl7i-34" value="" style="ellipse;whiteSpace=wrap;html=1;aspect=fixed;fillColor=#d5e8d4;strokeColor=#82b366;" parent="WIyWlLk6GJQsqaUBKTNV-1" vertex="1">
          <mxGeometry x="325" y="420" width="20" height="20" as="geometry" />
        </mxCell>
        <mxCell id="nvJy1aFqVvoF6byBFl7i-50" style="edgeStyle=none;rounded=0;orthogonalLoop=1;jettySize=auto;html=1;exitX=1;exitY=1;exitDx=0;exitDy=0;entryX=0;entryY=0.5;entryDx=0;entryDy=0;strokeColor=#000000;" parent="WIyWlLk6GJQsqaUBKTNV-1" source="nvJy1aFqVvoF6byBFl7i-35" target="nvJy1aFqVvoF6byBFl7i-42" edge="1">
          <mxGeometry relative="1" as="geometry" />
        </mxCell>
        <mxCell id="nvJy1aFqVvoF6byBFl7i-35" value="" style="ellipse;whiteSpace=wrap;html=1;aspect=fixed;fillColor=#d5e8d4;strokeColor=#82b366;" parent="WIyWlLk6GJQsqaUBKTNV-1" vertex="1">
          <mxGeometry x="325" y="480" width="20" height="20" as="geometry" />
        </mxCell>
        <mxCell id="nvJy1aFqVvoF6byBFl7i-47" style="edgeStyle=none;rounded=0;orthogonalLoop=1;jettySize=auto;html=1;exitX=0.5;exitY=1;exitDx=0;exitDy=0;entryX=0.5;entryY=0;entryDx=0;entryDy=0;dashed=1;strokeColor=#000000;" parent="WIyWlLk6GJQsqaUBKTNV-1" source="nvJy1aFqVvoF6byBFl7i-36" target="nvJy1aFqVvoF6byBFl7i-37" edge="1">
          <mxGeometry relative="1" as="geometry" />
        </mxCell>
        <mxCell id="nvJy1aFqVvoF6byBFl7i-36" value="" style="ellipse;whiteSpace=wrap;html=1;aspect=fixed;fillColor=#fff2cc;strokeColor=#d6b656;" parent="WIyWlLk6GJQsqaUBKTNV-1" vertex="1">
          <mxGeometry x="438.5" y="230" width="20" height="20" as="geometry" />
        </mxCell>
        <mxCell id="nvJy1aFqVvoF6byBFl7i-48" style="edgeStyle=none;rounded=0;orthogonalLoop=1;jettySize=auto;html=1;exitX=0.5;exitY=1;exitDx=0;exitDy=0;entryX=0.5;entryY=0;entryDx=0;entryDy=0;dashed=1;strokeColor=#000000;" parent="WIyWlLk6GJQsqaUBKTNV-1" source="nvJy1aFqVvoF6byBFl7i-37" target="nvJy1aFqVvoF6byBFl7i-42" edge="1">
          <mxGeometry relative="1" as="geometry" />
        </mxCell>
        <mxCell id="FUyVDOPKOTECQZRMBre0-10" style="edgeStyle=none;rounded=0;orthogonalLoop=1;jettySize=auto;html=1;exitX=0;exitY=1;exitDx=0;exitDy=0;entryX=1;entryY=0.5;entryDx=0;entryDy=0;elbow=vertical;" edge="1" parent="WIyWlLk6GJQsqaUBKTNV-1" source="nvJy1aFqVvoF6byBFl7i-37" target="nvJy1aFqVvoF6byBFl7i-22">
          <mxGeometry relative="1" as="geometry" />
        </mxCell>
        <mxCell id="nvJy1aFqVvoF6byBFl7i-37" value="" style="ellipse;whiteSpace=wrap;html=1;aspect=fixed;fillColor=#fff2cc;strokeColor=#d6b656;" parent="WIyWlLk6GJQsqaUBKTNV-1" vertex="1">
          <mxGeometry x="438.5" y="280" width="20" height="20" as="geometry" />
        </mxCell>
        <mxCell id="nvJy1aFqVvoF6byBFl7i-56" style="edgeStyle=none;rounded=0;orthogonalLoop=1;jettySize=auto;html=1;exitX=1;exitY=1;exitDx=0;exitDy=0;entryX=0;entryY=0.5;entryDx=0;entryDy=0;strokeColor=#000000;" parent="WIyWlLk6GJQsqaUBKTNV-1" source="nvJy1aFqVvoF6byBFl7i-42" target="nvJy1aFqVvoF6byBFl7i-52" edge="1">
          <mxGeometry relative="1" as="geometry" />
        </mxCell>
        <mxCell id="nvJy1aFqVvoF6byBFl7i-42" value="" style="ellipse;whiteSpace=wrap;html=1;aspect=fixed;fillColor=#fff2cc;strokeColor=#d6b656;" parent="WIyWlLk6GJQsqaUBKTNV-1" vertex="1">
          <mxGeometry x="438.5" y="520" width="20" height="20" as="geometry" />
        </mxCell>
        <mxCell id="nvJy1aFqVvoF6byBFl7i-64" style="edgeStyle=none;rounded=0;orthogonalLoop=1;jettySize=auto;html=1;exitX=0.5;exitY=1;exitDx=0;exitDy=0;dashed=1;strokeColor=#000000;startArrow=none;" parent="WIyWlLk6GJQsqaUBKTNV-1" source="FUyVDOPKOTECQZRMBre0-5" target="nvJy1aFqVvoF6byBFl7i-52" edge="1">
          <mxGeometry relative="1" as="geometry" />
        </mxCell>
        <mxCell id="nvJy1aFqVvoF6byBFl7i-51" value="" style="ellipse;whiteSpace=wrap;html=1;aspect=fixed;fillColor=#dae8fc;strokeColor=#6c8ebf;" parent="WIyWlLk6GJQsqaUBKTNV-1" vertex="1">
          <mxGeometry x="640" y="280" width="20" height="20" as="geometry" />
        </mxCell>
        <mxCell id="nvJy1aFqVvoF6byBFl7i-52" value="" style="ellipse;whiteSpace=wrap;html=1;aspect=fixed;fillColor=#dae8fc;strokeColor=#6c8ebf;" parent="WIyWlLk6GJQsqaUBKTNV-1" vertex="1">
          <mxGeometry x="640" y="540" width="20" height="20" as="geometry" />
        </mxCell>
        <mxCell id="nvJy1aFqVvoF6byBFl7i-53" value="Tag V1.0" style="shape=document;whiteSpace=wrap;html=1;boundedLbl=1;" parent="WIyWlLk6GJQsqaUBKTNV-1" vertex="1">
          <mxGeometry x="710" y="170" width="60" height="35" as="geometry" />
        </mxCell>
        <mxCell id="nvJy1aFqVvoF6byBFl7i-54" value="Tag V2.0" style="shape=document;whiteSpace=wrap;html=1;boundedLbl=1;" parent="WIyWlLk6GJQsqaUBKTNV-1" vertex="1">
          <mxGeometry x="710" y="275" width="60" height="35" as="geometry" />
        </mxCell>
        <mxCell id="nvJy1aFqVvoF6byBFl7i-55" value="Tag V3.0" style="shape=document;whiteSpace=wrap;html=1;boundedLbl=1;" parent="WIyWlLk6GJQsqaUBKTNV-1" vertex="1">
          <mxGeometry x="710" y="532.5" width="60" height="35" as="geometry" />
        </mxCell>
        <mxCell id="nvJy1aFqVvoF6byBFl7i-69" value="" style="endArrow=classic;html=1;rounded=0;strokeColor=#000000;strokeWidth=2;" parent="WIyWlLk6GJQsqaUBKTNV-1" edge="1">
          <mxGeometry relative="1" as="geometry">
            <mxPoint x="50" y="160" as="sourcePoint" />
            <mxPoint x="50" y="550" as="targetPoint" />
          </mxGeometry>
        </mxCell>
        <mxCell id="nvJy1aFqVvoF6byBFl7i-72" value="Time" style="text;html=1;align=center;verticalAlign=middle;resizable=0;points=[];autosize=1;strokeColor=none;fillColor=none;" parent="WIyWlLk6GJQsqaUBKTNV-1" vertex="1">
          <mxGeometry y="170" width="40" height="20" as="geometry" />
        </mxCell>
        <mxCell id="FUyVDOPKOTECQZRMBre0-7" style="edgeStyle=none;rounded=0;orthogonalLoop=1;jettySize=auto;html=1;exitX=1;exitY=1;exitDx=0;exitDy=0;entryX=0;entryY=0;entryDx=0;entryDy=0;elbow=vertical;" edge="1" parent="WIyWlLk6GJQsqaUBKTNV-1" source="FUyVDOPKOTECQZRMBre0-0" target="FUyVDOPKOTECQZRMBre0-5">
          <mxGeometry relative="1" as="geometry" />
        </mxCell>
        <mxCell id="FUyVDOPKOTECQZRMBre0-9" style="edgeStyle=none;rounded=0;orthogonalLoop=1;jettySize=auto;html=1;exitX=0;exitY=1;exitDx=0;exitDy=0;entryX=1;entryY=0.5;entryDx=0;entryDy=0;elbow=vertical;" edge="1" parent="WIyWlLk6GJQsqaUBKTNV-1" source="FUyVDOPKOTECQZRMBre0-0" target="nvJy1aFqVvoF6byBFl7i-37">
          <mxGeometry relative="1" as="geometry" />
        </mxCell>
        <mxCell id="FUyVDOPKOTECQZRMBre0-0" value="" style="ellipse;whiteSpace=wrap;html=1;aspect=fixed;fillColor=#a20025;strokeColor=#6F0000;fontColor=#ffffff;" vertex="1" parent="WIyWlLk6GJQsqaUBKTNV-1">
          <mxGeometry x="540" y="230" width="20" height="20" as="geometry" />
        </mxCell>
        <mxCell id="FUyVDOPKOTECQZRMBre0-5" value="" style="ellipse;whiteSpace=wrap;html=1;aspect=fixed;fillColor=#dae8fc;strokeColor=#6c8ebf;" vertex="1" parent="WIyWlLk6GJQsqaUBKTNV-1">
          <mxGeometry x="640" y="380" width="20" height="20" as="geometry" />
        </mxCell>
        <mxCell id="FUyVDOPKOTECQZRMBre0-6" value="" style="edgeStyle=none;rounded=0;orthogonalLoop=1;jettySize=auto;html=1;exitX=0.5;exitY=1;exitDx=0;exitDy=0;dashed=1;strokeColor=#000000;endArrow=none;" edge="1" parent="WIyWlLk6GJQsqaUBKTNV-1" source="nvJy1aFqVvoF6byBFl7i-51" target="FUyVDOPKOTECQZRMBre0-5">
          <mxGeometry relative="1" as="geometry">
            <mxPoint x="650" y="300" as="sourcePoint" />
            <mxPoint x="650" y="540" as="targetPoint" />
          </mxGeometry>
        </mxCell>
      </root>
    </mxGraphModel>
  </diagram>
</mxfile>
